<?xml version="1.0" encoding="UTF-8"?>
<!-- Created with Inkscape (http://www.inkscape.org/) -->
<svg width="70" height="70" version="1.1" viewBox="0 0 18.521 18.521" xmlns="http://www.w3.org/2000/svg">
 <g transform="matrix(.95074 0 0 1.0015 -90.524 -139.3)" fill="none" stroke="#fff" stroke-width=".5">
  <path d="m110.63 146.72 1.4813-0.42069 0.49041-0.0166 0.44935 1.5717v0.95242l-0.44935 1.5717-0.49041-0.0166-1.4813-0.42069-1.4408 2.4955 1.105 1.0725 0.25964 0.41637-1.1365 1.175-0.82482 0.47623-1.5858 0.3967-0.23076-0.43304-0.37635-1.4932h-2.8816l-0.37635 1.4932-0.23076 0.43304-1.5858-0.3967-0.82482-0.47623-1.1365-1.175 0.25964-0.41637 1.105-1.0725-1.4408-2.4955-1.4813 0.42069-0.4904 0.0166-0.44935-1.5717v-0.95242l0.44935-1.5717 0.4904 0.0166 1.4813 0.42069 1.4408-2.4955-1.105-1.0725-0.25964-0.41637 1.1365-1.175 0.82482-0.47623 1.5858-0.3967 0.23076 0.43304 0.37635 1.4932h2.8816l0.37635-1.4932 0.23076-0.43304 1.5858 0.3967 0.82482 0.47623 1.1365 1.175-0.25964 0.41637-1.105 1.0725z"/>
  <circle cx="104.95" cy="148.33" r="2.6458"/>
 </g>
</svg>
