<?xml version="1.0" encoding="UTF-8" standalone="no"?>
<!-- Created with Inkscape (http://www.inkscape.org/) -->

<svg
   width="70"
   height="70"
   viewBox="0 0 18.520833 18.520833"
   version="1.1"
   id="svg5"
   sodipodi:docname="icon-gear.svg"
   inkscape:version="1.1 (c68e22c387, 2021-05-23)"
   xmlns:inkscape="http://www.inkscape.org/namespaces/inkscape"
   xmlns:sodipodi="http://sodipodi.sourceforge.net/DTD/sodipodi-0.dtd"
   xmlns="http://www.w3.org/2000/svg"
   xmlns:svg="http://www.w3.org/2000/svg">
  <sodipodi:namedview
     id="namedview7"
     pagecolor="#ffffff"
     bordercolor="#666666"
     borderopacity="1.0"
     inkscape:pageshadow="2"
     inkscape:pageopacity="0.0"
     inkscape:pagecheckerboard="0"
     inkscape:document-units="mm"
     showgrid="false"
     inkscape:zoom="0.77771465"
     inkscape:cx="325.95503"
     inkscape:cy="495.04018"
     inkscape:window-width="3440"
     inkscape:window-height="1371"
     inkscape:window-x="0"
     inkscape:window-y="32"
     inkscape:window-maximized="1"
     inkscape:current-layer="layer1"
     units="px" />
  <defs
     id="defs2" />
  <g
     inkscape:label="Layer 1"
     inkscape:groupmode="layer"
     id="layer1">
    <g
       id="g2323"
       transform="matrix(0.9507446,0,0,1.0015263,-90.524034,-139.29606)"
       style="fill:#ffffff;stroke:#ffffff;stroke-opacity:1">
      <path
         style="fill:#ffffff;stroke:#ffffff;stroke-width:0.5;stroke-miterlimit:4;stroke-dasharray:none;stroke-opacity:1"
         d="m 110.62511,146.71947 1.48134,-0.42069 0.49041,-0.0166 0.44935,1.57169 v 0.95242 l -0.44935,1.57169 -0.49041,-0.0166 -1.48134,-0.42069 -1.44079,2.49553 1.105,1.07253 0.25964,0.41637 -1.13646,1.17496 -0.82482,0.47623 -1.58578,0.3967 -0.23076,-0.43304 -0.37635,-1.49322 h -2.88158 l -0.37635,1.49322 -0.23076,0.43304 -1.58578,-0.3967 -0.82482,-0.47623 -1.13646,-1.17496 0.259643,-0.41637 1.104997,-1.07253 -1.44079,-2.49553 -1.481344,0.42069 -0.490404,0.0166 -0.449347,-1.57169 v -0.95242 l 0.449347,-1.57169 0.490404,0.0166 1.481344,0.42069 1.44079,-2.49553 -1.104997,-1.07253 -0.259643,-0.41637 1.13646,-1.17496 0.82482,-0.47623 1.58578,-0.3967 0.23076,0.43304 0.37635,1.49322 h 2.88158 l 0.37635,-1.49322 0.23076,-0.43304 1.58578,0.3967 0.82482,0.47623 1.13646,1.17496 -0.25964,0.41637 -1.105,1.07253 z"
         id="path170"
         sodipodi:nodetypes="ccccccccccccccccccccccccccccccccccccccccccccccccc" />
      <circle
         style="fill:#ffffff;stroke:#ffffff;stroke-width:0.5;stroke-miterlimit:4;stroke-dasharray:none;stroke-opacity:1"
         id="path172"
         cx="104.954"
         cy="148.33"
         r="2.6458333" />
    </g>
  </g>
</svg>
